<svg id="Layer_1" data-name="Layer 1" xmlns="http://www.w3.org/2000/svg" viewBox="0 0 154.97 46"><defs><style>.cls-1{fill:#fff;}</style></defs><path d="M149.77,0H5.09A5.41,5.41,0,0,0-.33,5.42V40.58A5.41,5.41,0,0,0,5.09,46H149.77a5.52,5.52,0,0,0,5.54-5.42V5.42A5.52,5.52,0,0,0,149.77,0Z"/><path class="cls-1" d="M34.37,22.83a6.76,6.76,0,0,1,3.23-5.65,6.76,6.76,0,0,0-5.42-2.88c-2.31-.23-4.5,1.38-5.65,1.38s-3-1.38-4.84-1.27a7.16,7.16,0,0,0-6,3.69C13,22.6,15,29.28,17.54,33c1.26,1.85,2.76,3.81,4.61,3.69s2.53-1.15,4.84-1.15,2.88,1.15,4.84,1.15,3.23-1.84,4.5-3.57a13.21,13.21,0,0,0,2.07-4.15C38.29,28.71,34.37,27.21,34.37,22.83Z"/><path class="cls-1" d="M30.68,11.87a6.3,6.3,0,0,0,1.5-4.72A7.56,7.56,0,0,0,27.8,9.34a6.07,6.07,0,0,0-1.5,4.49A5.07,5.07,0,0,0,30.68,11.87Z"/><path class="cls-1" d="M61.46,36.32H58.81l-1.38-4.5h-5l-1.38,4.5H48.55l5-15.34h3ZM57,29.86l-1.27-4c-.12-.46-.35-1.38-.81-2.88h0c-.12.69-.35,1.62-.69,2.88l-1.27,4Z"/><path class="cls-1" d="M74.14,30.67a6.41,6.41,0,0,1-1.5,4.49,4.69,4.69,0,0,1-3.34,1.5,3.26,3.26,0,0,1-3.11-1.61h0v5.88H63.65V28.82c0-1.15,0-2.42-.11-3.69h2.19l.11,1.73h0a4.17,4.17,0,0,1,3.69-2,3.93,3.93,0,0,1,3.23,1.5A6.56,6.56,0,0,1,74.14,30.67Zm-2.53,0A4.77,4.77,0,0,0,70.92,28a2.67,2.67,0,0,0-2.2-1,2.79,2.79,0,0,0-1.61.57,2.88,2.88,0,0,0-.92,1.62,1.92,1.92,0,0,0-.12.69V31.7a3.24,3.24,0,0,0,.69,2.08,2.39,2.39,0,0,0,2,.81,2.7,2.7,0,0,0,2.2-1A5.09,5.09,0,0,0,71.61,30.67Z"/><path class="cls-1" d="M86.94,30.67a6.41,6.41,0,0,1-1.5,4.49,4.69,4.69,0,0,1-3.34,1.5A3.26,3.26,0,0,1,79,35.05h0v5.88H76.33V28.82c0-1.15,0-2.42-.11-3.69h2.19l.11,1.73h0a4.17,4.17,0,0,1,3.69-2,3.93,3.93,0,0,1,3.23,1.5A6,6,0,0,1,86.94,30.67Zm-2.54,0A4.77,4.77,0,0,0,83.71,28a2.65,2.65,0,0,0-2.19-1,2.79,2.79,0,0,0-1.61.57A2.88,2.88,0,0,0,79,29.17a1.92,1.92,0,0,0-.12.69V31.7a3.24,3.24,0,0,0,.69,2.08,2.36,2.36,0,0,0,2,.81,2.68,2.68,0,0,0,2.19-1A5.09,5.09,0,0,0,84.4,30.67Z"/><path class="cls-1" d="M101.12,31.93a4.18,4.18,0,0,1-1.38,3.23,6,6,0,0,1-4.15,1.39,7.51,7.51,0,0,1-3.92-.93l.57-2.07a6.41,6.41,0,0,0,3.58.92A4.08,4.08,0,0,0,98,33.89a2.24,2.24,0,0,0,.8-1.72,2.28,2.28,0,0,0-.69-1.62,5.69,5.69,0,0,0-2.07-1.15c-2.65-1-4-2.42-4-4.38A4,4,0,0,1,93.4,21.9a5.59,5.59,0,0,1,3.8-1.15,7.73,7.73,0,0,1,3.46.69l-.58,2a6.24,6.24,0,0,0-2.88-.69,3,3,0,0,0-2.07.69,1.55,1.55,0,0,0-.58,1.39,1.88,1.88,0,0,0,.69,1.5,7.68,7.68,0,0,0,2.19,1.15,8.27,8.27,0,0,1,2.88,1.84A5.17,5.17,0,0,1,101.12,31.93Z"/><path class="cls-1" d="M109.19,27.09h-2.65v5.42c0,1.38.46,2.08,1.38,2.08a2.48,2.48,0,0,0,1-.12l.12,1.85a4.85,4.85,0,0,1-2,.23,3.21,3.21,0,0,1-2.31-.93,4.2,4.2,0,0,1-.81-3V27.09h-1.61V25.25H104V23.17l2.42-.69v2.77h2.66A10.33,10.33,0,0,1,109.19,27.09Z"/><path class="cls-1" d="M121.41,30.67a5.57,5.57,0,0,1-1.5,4.15,5.56,5.56,0,0,1-8,.11,5.47,5.47,0,0,1-1.5-4,6,6,0,0,1,1.5-4.27A5.36,5.36,0,0,1,116,25a5.28,5.28,0,0,1,3.92,1.61A5.48,5.48,0,0,1,121.41,30.67Zm-2.54.11a5.06,5.06,0,0,0-.69-2.65A2.26,2.26,0,0,0,116,26.86a2.64,2.64,0,0,0-2.3,1.27,4.77,4.77,0,0,0-.69,2.65,5,5,0,0,0,.69,2.65,2.47,2.47,0,0,0,4.38-.11A3.76,3.76,0,0,0,118.87,30.78Z"/><path class="cls-1" d="M129.48,27.44c-.23,0-.46-.12-.81-.12a2.15,2.15,0,0,0-2,1,3.3,3.3,0,0,0-.57,2.19v5.77H123.6V28.71a34,34,0,0,0-.11-3.46h2.19l.11,2.07h.12a3.8,3.8,0,0,1,1.27-1.73,3.45,3.45,0,0,1,1.73-.57h.57Z"/><path class="cls-1" d="M140.43,30.21a3.72,3.72,0,0,1-.11,1.15h-7.38a3.2,3.2,0,0,0,1,2.53,3.73,3.73,0,0,0,2.42.81,8.83,8.83,0,0,0,3-.57l.34,1.72a9,9,0,0,1-3.69.7,5.12,5.12,0,0,1-4-1.5,5.8,5.8,0,0,1-1.5-4,6.24,6.24,0,0,1,1.38-4.15,4.69,4.69,0,0,1,3.92-1.73,4.05,4.05,0,0,1,3.58,1.73A5.06,5.06,0,0,1,140.43,30.21Zm-2.3-.58a3.23,3.23,0,0,0-.46-1.85,2.13,2.13,0,0,0-2-1,2.26,2.26,0,0,0-2,1,2.93,2.93,0,0,0-.69,2l5.07-.11Z"/><path class="cls-1" d="M56.16,11.53a3.89,3.89,0,0,1-1.27,3.11,5.34,5.34,0,0,1-3.23.92,8,8,0,0,1-1.73-.11V8.07A12.1,12.1,0,0,1,52,8a4.7,4.7,0,0,1,3,.81A3.16,3.16,0,0,1,56.16,11.53Zm-1.27,0a3,3,0,0,0-.69-2.08,2.82,2.82,0,0,0-2.08-.69,2.17,2.17,0,0,0-.92.12v5.65H52a2.87,2.87,0,0,0,2.19-.81A2.93,2.93,0,0,0,54.89,11.53Z"/><path class="cls-1" d="M63,12.68a3.24,3.24,0,0,1-.69,2.08,2.38,2.38,0,0,1-2,.8,2.55,2.55,0,0,1-2-.8,2.93,2.93,0,0,1-.69-2,3.24,3.24,0,0,1,.69-2.08,2.39,2.39,0,0,1,2-.81,2.55,2.55,0,0,1,2,.81A2.71,2.71,0,0,1,63,12.68Zm-1.27,0a2.34,2.34,0,0,0-.34-1.27,1.11,1.11,0,0,0-1-.69,1.39,1.39,0,0,0-1.15.69,2.48,2.48,0,0,0,0,2.54,1.15,1.15,0,0,0,1.15.69,1.11,1.11,0,0,0,1-.69A1.86,1.86,0,0,0,61.69,12.68Z"/><path class="cls-1" d="M72,10l-1.73,5.42H69.07l-.69-2.31a9,9,0,0,1-.46-1.73h0a9.83,9.83,0,0,1-.46,1.73l-.7,2.31H65.61L64,10h1.27l.57,2.54.35,1.73h0a17.8,17.8,0,0,1,.46-1.73l.81-2.66h1l.7,2.54a11.37,11.37,0,0,1,.46,1.85h0c.11-.58.23-1.16.34-1.85l.69-2.54L72,10Z"/><path class="cls-1" d="M78.29,15.45H77.14V12.34c0-.93-.35-1.39-1-1.39a1.32,1.32,0,0,0-.92.35,1.3,1.3,0,0,0-.35.92v3.23H73.68V10h1v.81h0a3,3,0,0,1,.58-.69,1.77,1.77,0,0,1,1-.35,1.71,1.71,0,0,1,1.27.46,2.25,2.25,0,0,1,.58,1.85v3.34Z"/><path class="cls-1" d="M81.52,15.45H80.37v-8h1.15Z"/><path class="cls-1" d="M88.67,12.68A3.24,3.24,0,0,1,88,14.76a2.4,2.4,0,0,1-2,.8,2.53,2.53,0,0,1-2-.8,2.93,2.93,0,0,1-.69-2,3.24,3.24,0,0,1,.69-2.08,2.39,2.39,0,0,1,2-.81,2.57,2.57,0,0,1,2,.81A2.71,2.71,0,0,1,88.67,12.68Zm-1.27,0a2.34,2.34,0,0,0-.34-1.27,1.12,1.12,0,0,0-1-.69,1.42,1.42,0,0,0-1.16.69,2.54,2.54,0,0,0,0,2.54,1.17,1.17,0,0,0,1.16.69,1.12,1.12,0,0,0,1-.69A1.86,1.86,0,0,0,87.4,12.68Z"/><path class="cls-1" d="M94.55,15.45h-1l-.11-.58h0a2,2,0,0,1-1.62.69,1.73,1.73,0,0,1-1.27-.46A2,2,0,0,1,90.05,14a1.57,1.57,0,0,1,.81-1.5A3.64,3.64,0,0,1,93.17,12v-.12c0-.69-.35-1-1.16-1a2.48,2.48,0,0,0-1.38.34l-.23-.8a3.1,3.1,0,0,1,1.84-.47c1.39,0,2.08.7,2.08,2.2v2A9.62,9.62,0,0,0,94.55,15.45ZM93.28,13.6v-.8c-1.38,0-2,.34-2,1.15a1.71,1.71,0,0,0,.23.69.88.88,0,0,0,.58.23,1.57,1.57,0,0,0,.69-.23,1,1,0,0,0,.46-.69Z"/><path class="cls-1" d="M101.35,15.45h-1v-.92h0a1.78,1.78,0,0,1-1.73,1,1.87,1.87,0,0,1-1.61-.8,2.73,2.73,0,0,1-.69-2A3.3,3.3,0,0,1,97,10.61,2.46,2.46,0,0,1,98.7,9.8a1.59,1.59,0,0,1,1.5.69h0V7.38h1.15v8.07Zm-1.15-2.31V11.87a1.1,1.1,0,0,0-.46-.69,1,1,0,0,0-.81-.34,1.22,1.22,0,0,0-1,.57,2.49,2.49,0,0,0-.34,1.39,2.1,2.1,0,0,0,.34,1.27,1.22,1.22,0,0,0,1,.57,1,1,0,0,0,.92-.46A1.63,1.63,0,0,0,100.2,13.14Z"/><path class="cls-1" d="M111.73,12.68a3.24,3.24,0,0,1-.69,2.08,2.41,2.41,0,0,1-2,.8,2.53,2.53,0,0,1-2-.8,2.89,2.89,0,0,1-.7-2,3.19,3.19,0,0,1,.7-2.08,2.39,2.39,0,0,1,2-.81,2.57,2.57,0,0,1,2,.81A2.71,2.71,0,0,1,111.73,12.68Zm-1.27,0a2.35,2.35,0,0,0-.35-1.27,1.1,1.1,0,0,0-1-.69,1.41,1.41,0,0,0-1.16.69,2.54,2.54,0,0,0,0,2.54,1.16,1.16,0,0,0,1.16.69,1.1,1.1,0,0,0,1-.69A1.85,1.85,0,0,0,110.46,12.68Z"/><path class="cls-1" d="M118.18,15.45H117V12.34c0-.93-.35-1.39-1.15-1.39a1.3,1.3,0,0,0-.92.35,1.26,1.26,0,0,0-.35.92v3.23h-1.15V10h1v.81h0a3.22,3.22,0,0,1,.58-.69,1.89,1.89,0,0,1,1.15-.35,1.71,1.71,0,0,1,1.27.46,2.25,2.25,0,0,1,.58,1.85v3.34Z"/><path class="cls-1" d="M126.37,11H125V13.6c0,.7.23,1,.69,1h.57v.92a2.14,2.14,0,0,1-.92.12,1.49,1.49,0,0,1-1.15-.46,2.64,2.64,0,0,1-.35-1.5V11H123V10h.8V9L125,8.65V10h1.38V11Z"/><path class="cls-1" d="M132.71,15.45h-1.15V12.34c0-.93-.35-1.5-1-1.5a1.1,1.1,0,0,0-1.15.8v3.69h-1.16V7.38h1.16v3.23h0A1.83,1.83,0,0,1,131,9.68a1.74,1.74,0,0,1,1.27.47,2.37,2.37,0,0,1,.57,1.84C132.71,12.22,132.71,15.45,132.71,15.45Z"/><path class="cls-1" d="M139.4,12.45V13h-3.58a1.66,1.66,0,0,0,.58,1.27,1.93,1.93,0,0,0,1.15.34,5.62,5.62,0,0,0,1.5-.23l.23.81a4.38,4.38,0,0,1-1.84.34,2.71,2.71,0,0,1-2-.69,2.71,2.71,0,0,1-.7-2,3.22,3.22,0,0,1,.7-2.07,2.4,2.4,0,0,1,1.84-.93,1.9,1.9,0,0,1,1.73.93A4.66,4.66,0,0,1,139.4,12.45Zm-1.16-.23a2.08,2.08,0,0,0-.23-.92,1.15,1.15,0,0,0-1.84,0,1.3,1.3,0,0,0-.35.92Z"/></svg>