<?xml version="1.0" encoding="UTF-8"?>
<svg width="174px" height="169px" viewBox="0 0 174 169" version="1.1" xmlns="http://www.w3.org/2000/svg" xmlns:xlink="http://www.w3.org/1999/xlink">
    <title>Shape</title>
    <g id="Page-1" stroke="none" stroke-width="1" fill="none" fill-rule="evenodd">
        <g id="Home" transform="translate(-175.000000, -5438.000000)" fill="#FFFFFF" fill-rule="nonzero">
            <g id="0002" transform="translate(-3.300000, 5438.868544)">
                <path d="M190.158,231.39 C181.807,208.101 178.757,177.17 178.757,140.529 C178.757,103.888 181.788,72.9376 190.158,49.6676 C201.91,16.8045 224.636,0 265.252,0 C305.868,0 328.603,16.8045 340.356,49.6389 C348.707,72.928 351.757,103.859 351.757,140.5 C351.757,177.141 348.726,208.082 340.356,231.361 C328.603,264.205 305.84,281 265.252,281 C224.665,281 201.91,264.205 190.196,231.361 L190.158,231.39 Z M283.123,208.407 C288.434,193.515 289.194,166.783 289.194,140.443 C289.194,114.102 288.434,87.3606 283.123,72.4689 C279.712,62.9046 274.021,57.166 265.29,57.166 C256.559,57.166 250.877,62.9046 247.467,72.4689 C242.156,87.3606 241.396,114.093 241.396,140.443 C241.396,166.792 242.156,193.515 247.467,208.407 C250.877,217.971 256.568,223.71 265.29,223.71 C274.012,223.71 279.712,217.971 283.123,208.407 Z" id="Shape"></path>
            </g>
        </g>
    </g>
</svg>