<svg id="Layer_1" data-name="Layer 1" xmlns="http://www.w3.org/2000/svg" xmlns:xlink="http://www.w3.org/1999/xlink" viewBox="0 0 154.97 46"><defs><style>.cls-1{fill:#a6a6a6;}.cls-2{fill:#fff;}.cls-3{fill:#00c1ff;}.cls-4{fill:url(#linear-gradient);}.cls-5{fill:url(#linear-gradient-2);}.cls-6{fill:url(#linear-gradient-3);}.cls-7{fill:url(#linear-gradient-4);}.cls-8{fill:url(#linear-gradient-5);}.cls-9{fill:url(#linear-gradient-6);}.cls-10{fill:url(#linear-gradient-7);}.cls-11{fill:url(#linear-gradient-8);}</style><linearGradient id="linear-gradient" x1="4394.51" y1="-2582.27" x2="4370.98" y2="-2627.51" gradientTransform="matrix(0.22, 0, 0, -0.43, -955.42, -1091.27)" gradientUnits="userSpaceOnUse"><stop offset="0" stop-color="#00a0ff"/><stop offset="0.01" stop-color="#00a1ff"/><stop offset="0.26" stop-color="#00beff"/><stop offset="0.51" stop-color="#00d2ff"/><stop offset="0.76" stop-color="#00dfff"/><stop offset="1" stop-color="#00e3ff"/></linearGradient><linearGradient id="linear-gradient-2" x1="2336.88" y1="-3886.71" x2="2255.46" y2="-3886.71" gradientTransform="matrix(0.34, 0, 0, -0.28, -758.27, -1056.34)" gradientUnits="userSpaceOnUse"><stop offset="0" stop-color="#ffe000"/><stop offset="0.41" stop-color="#ffbd00"/><stop offset="0.78" stop-color="orange"/><stop offset="1" stop-color="#ff9c00"/></linearGradient><linearGradient id="linear-gradient-3" x1="2457.06" y1="-3772.81" x2="2382.84" y2="-3829.69" gradientTransform="matrix(0.35, 0, 0, -0.27, -834.2, -993.18)" gradientUnits="userSpaceOnUse"><stop offset="0" stop-color="#ff3a44"/><stop offset="1" stop-color="#c31162"/></linearGradient><linearGradient id="linear-gradient-4" x1="2399.45" y1="-4026.5" x2="2432.54" y2="-4051.91" gradientTransform="matrix(0.35, 0, 0, -0.27, -834.14, -1080.07)" gradientUnits="userSpaceOnUse"><stop offset="0" stop-color="#32a071"/><stop offset="0.07" stop-color="#2da771"/><stop offset="0.48" stop-color="#15cf74"/><stop offset="0.8" stop-color="#06e775"/><stop offset="1" stop-color="#00f076"/></linearGradient><linearGradient id="linear-gradient-5" x1="5567.84" y1="-2219.16" x2="5555.11" y2="-2256.03" gradientTransform="matrix(0.18, 0, 0, -0.52, -993.05, -1150.11)" gradientUnits="userSpaceOnUse"><stop offset="0" stop-color="#008de0"/><stop offset="0.01" stop-color="#008de0"/><stop offset="0.26" stop-color="#00a7e0"/><stop offset="0.51" stop-color="#00b8e0"/><stop offset="0.76" stop-color="#00c4e0"/><stop offset="1" stop-color="#00c7e0"/></linearGradient><linearGradient id="linear-gradient-6" x1="2025.56" y1="-4148.22" x2="1950.01" y2="-4148.22" gradientTransform="matrix(0.37, 0, 0, -0.26, -705.75, -1043.57)" gradientUnits="userSpaceOnUse"><stop offset="0" stop-color="#e0c500"/><stop offset="0.41" stop-color="#e0a600"/><stop offset="0.78" stop-color="#e09100"/><stop offset="1" stop-color="#e08900"/></linearGradient><linearGradient id="linear-gradient-7" x1="2025.55" y1="-4241.03" x2="1950" y2="-4241.03" gradientTransform="matrix(0.37, 0, 0, -0.26, -705.75, -1072.34)" gradientUnits="userSpaceOnUse"><stop offset="0" stop-color="#ffe840"/><stop offset="0.41" stop-color="#ffce40"/><stop offset="0.78" stop-color="#ffbc40"/><stop offset="1" stop-color="#ffb540"/></linearGradient><linearGradient id="linear-gradient-8" x1="5562.74" y1="-2516.69" x2="5550.08" y2="-2551.86" gradientTransform="matrix(0.18, 0, 0, -0.52, -993.32, -1310.75)" gradientUnits="userSpaceOnUse"><stop offset="0" stop-color="#40b8ff"/><stop offset="0.01" stop-color="#40b9ff"/><stop offset="0.26" stop-color="#40ceff"/><stop offset="0.51" stop-color="#40ddff"/><stop offset="0.76" stop-color="#40e7ff"/><stop offset="1" stop-color="#40eaff"/></linearGradient></defs><path d="M149.23,46H5.74A5.77,5.77,0,0,1,0,40.26V5.76A5.76,5.76,0,0,1,5.74,0H149.23A5.75,5.75,0,0,1,155,5.76v34.5A5.77,5.77,0,0,1,149.23,46"/><path class="cls-1" d="M149.23,0H5.74A5.77,5.77,0,0,0,0,5.74v34.5A5.76,5.76,0,0,0,5.74,46H149.23A5.75,5.75,0,0,0,155,40.24V5.76A5.77,5.77,0,0,0,149.23,0m0,.92a4.84,4.84,0,0,1,4.82,4.84v34.5a4.83,4.83,0,0,1-4.82,4.83H5.74A4.83,4.83,0,0,1,.92,40.26V5.76A4.84,4.84,0,0,1,5.74.92H149.23"/><path class="cls-2" d="M54.43,11.79a3.15,3.15,0,0,1-.86,2.3,3.34,3.34,0,0,1-2.53,1,3.55,3.55,0,0,1-3.58-3.61A3.55,3.55,0,0,1,51,7.89a3.59,3.59,0,0,1,1.41.29A2.89,2.89,0,0,1,53.52,9l-.6.6A2.32,2.32,0,0,0,51,8.73a2.56,2.56,0,0,0-1.88.77,2.61,2.61,0,0,0-.79,2,2.7,2.7,0,0,0,.79,2,2.66,2.66,0,0,0,1.88.77A2.61,2.61,0,0,0,53,13.5a2.21,2.21,0,0,0,.57-1.4H51v-.82h3.34a2.94,2.94,0,0,1,0,.51"/><path class="cls-2" d="M54.43,11.79h-.12A2.94,2.94,0,0,1,53.49,14h0A3.19,3.19,0,0,1,51,15a3.27,3.27,0,0,1-2.45-1,3.33,3.33,0,0,1-1-2.48A3.45,3.45,0,0,1,51,8a3.53,3.53,0,0,1,1.37.28,2.83,2.83,0,0,1,1,.74L53.54,9l-.09-.08-.6.61.08.08L53,9.5a2.43,2.43,0,0,0-2-.85,2.73,2.73,0,0,0-2,.8,2.77,2.77,0,0,0-.82,2.07A2.78,2.78,0,0,0,51,14.39a2.67,2.67,0,0,0,2-.81,2.23,2.23,0,0,0,.61-1.46l0-.12H51.14v-.6h3.22v-.12l-.12,0a2.12,2.12,0,0,1,0,.5h.24a3.5,3.5,0,0,0-.05-.54l0-.1H50.92v1.06h2.62v-.13l-.12,0a2.1,2.1,0,0,1-.54,1.33,2.5,2.5,0,0,1-1.84.74,2.43,2.43,0,0,1-1.8-.74,2.54,2.54,0,0,1-.76-1.92,2.57,2.57,0,0,1,.76-1.91A2.5,2.5,0,0,1,51,8.83a2.18,2.18,0,0,1,1.79.77l.09.1L53.61,9,53.67,9l-.06-.09a3.08,3.08,0,0,0-1.13-.8A3.7,3.7,0,0,0,51,7.76a3.65,3.65,0,0,0-3.69,3.72,3.61,3.61,0,0,0,1.07,2.66A3.65,3.65,0,0,0,51,15.21a3.46,3.46,0,0,0,2.62-1.06l-.09-.08.09.08a3.23,3.23,0,0,0,.89-2.38l-.1,0M59.72,8.9H56.58v2.18H59.4v.82H56.58v2.19h3.14v.83h-4V8.06h4V8.9"/><path class="cls-2" d="M59.72,8.9V8.78H56.46V11.2h2.82v.6H56.46v2.42H59.6v.62H55.8V8.18h3.8v.73h.12v0h.11v-1H55.59v7.14h4.24V14H56.69V12h2.82V11H56.69V9h3.14V8.9h-.11M63.44,15h-.89V8.91H60.62V8.08h4.74v.83H63.43V15"/><path class="cls-2" d="M63.44,15v-.12h-.77v-6H60.74V8.18h4.5V8.8H63.31V15h.13v0h.12V9h1.93V7.94h-5V9h1.93v6h1.11v-.12l-.12,0m5.36,0V8.06h.89V15H68.8"/><path class="cls-2" d="M68.8,15h.12V8.18h.65v6.66H68.8V15h0v.12h1V7.94H68.7v7.14h.12V15m4.78,0h-.89V8.91H70.78V8.08h4.73v.83H73.58V15"/><path class="cls-2" d="M73.6,15v-.12h-.77v-6H70.9V8.18h4.5V8.8H73.47V15h.13v0h.12V9h1.93V7.94h-5V9h1.93v6h1.11v-.12l-.12,0m6.5-1.48a2.63,2.63,0,0,0,3.72,0,2.71,2.71,0,0,0,.78-2,2.67,2.67,0,0,0-.78-2,2.63,2.63,0,0,0-3.72,0,2.71,2.71,0,0,0-.78,2A2.71,2.71,0,0,0,80.1,13.48Zm4.4.57a3.33,3.33,0,0,1-2.52,1,3.37,3.37,0,0,1-2.52-1,3.52,3.52,0,0,1-1-2.55,3.52,3.52,0,0,1,1-2.55,3.3,3.3,0,0,1,2.52-1A3.37,3.37,0,0,1,84.5,9a3.68,3.68,0,0,1,0,5.09Z"/><path class="cls-2" d="M80.1,13.48l-.09.08a2.64,2.64,0,0,0,1.95.81,2.61,2.61,0,0,0,2-.81,2.79,2.79,0,0,0,.8-2.06,2.79,2.79,0,0,0-.8-2.06,2.75,2.75,0,0,0-3.9,0,2.83,2.83,0,0,0-.8,2.06,2.83,2.83,0,0,0,.8,2.06l.09-.08.08-.08a2.62,2.62,0,0,1-.74-1.9,2.59,2.59,0,0,1,.74-1.9A2.4,2.4,0,0,1,82,8.86a2.5,2.5,0,0,1,1.79.74,2.62,2.62,0,0,1,.74,1.9,2.59,2.59,0,0,1-.74,1.9,2.36,2.36,0,0,1-1.79.74,2.51,2.51,0,0,1-1.8-.74Zm4.4.57L84.41,14a3.45,3.45,0,0,1-4.88,0h0a3.4,3.4,0,0,1-1-2.49,3.41,3.41,0,0,1,1-2.48A3.25,3.25,0,0,1,82,8a3.2,3.2,0,0,1,2.43,1,3.4,3.4,0,0,1,1,2.46,3.43,3.43,0,0,1-1,2.49l.09.08.08.09a3.73,3.73,0,0,0,1-2.64,3.66,3.66,0,0,0-1.06-2.64,3.66,3.66,0,0,0-5.2,0h0a3.6,3.6,0,0,0-1,2.63,3.68,3.68,0,0,0,1,2.64h0A3.48,3.48,0,0,0,82,15.19a3.52,3.52,0,0,0,2.6-1.07Zm2.25.91V8.06h1.07l3.34,5.37h0l0-1.33v-4h.89V15h-.92L87.62,9.35h0l0,1.33V15l-.87,0"/><path class="cls-2" d="M86.75,15h.11V8.18h.91l3.34,5.37h.22l0-1.45V8.18H92v6.66h-.74L87.7,9.22h-.22l0,1.44v4.18h-.77V15h0v.12h1V10.66l0-1.33H87.6v.12h0V9.33l-.11.07,3.55,5.68h1.1V7.94h-1.1v4.15l0,1.32h.12V13.3h0v.11l.1-.06L87.92,7.92H86.66v7.14h.12l0-.1m36,19.54h2.15V20.13h-2.15Zm19.31-9.2-2.46,6.23h-.06L137,25.3h-2.3L138.5,34l-2.18,4.85h2.23l5.9-13.54Zm-12.16,7.57c-.7,0-1.68-.35-1.68-1.22,0-1.11,1.23-1.53,2.27-1.53a3.72,3.72,0,0,1,2,.49,2.61,2.61,0,0,1-2.55,2.26Zm.27-7.89a4.06,4.06,0,0,0-3.83,2.2l1.9.79a2,2,0,0,1,2-1.06,2.06,2.06,0,0,1,2.25,1.85v.15a4.74,4.74,0,0,0-2.23-.55c-2.05,0-4.13,1.12-4.13,3.24a3.3,3.3,0,0,0,3.56,3.15,3,3,0,0,0,2.74-1.41h.06v1.11h2.07V28.94c0-2.53-1.9-4-4.35-4Zm-13.25,2.07h-3V22.13h3a2.46,2.46,0,1,1,0,4.92Zm0-6.92h-5.13V34.5h2.15V29h3a4.46,4.46,0,1,0,0-8.91Zm-28,12.74a3,3,0,0,1,0-5.92,2.74,2.74,0,0,1,2.6,3,2.72,2.72,0,0,1-2.6,2.94Zm2.45-6.76h-.07A3.42,3.42,0,0,0,88.69,25a4.89,4.89,0,0,0,0,9.78,3.39,3.39,0,0,0,2.57-1.11h.07v.7c0,1.87-1,2.87-2.6,2.87a2.71,2.71,0,0,1-2.47-1.74l-1.87.77a4.68,4.68,0,0,0,4.34,2.89c2.51,0,4.63-1.48,4.63-5.09V25.3h-2Zm3.51,8.39H97V20.13H94.84Zm5.32-4.75a2.68,2.68,0,0,1,2.55-2.86,1.85,1.85,0,0,1,1.81,1.05Zm6.65-1.63A4.55,4.55,0,0,0,102.63,25,4.64,4.64,0,0,0,98,29.9a4.78,4.78,0,0,0,4.85,4.89,4.87,4.87,0,0,0,4.06-2.17l-1.66-1.11a2.77,2.77,0,0,1-2.4,1.36,2.5,2.5,0,0,1-2.37-1.48l6.53-2.7Zm-52-1.61v2.08h5a4.37,4.37,0,0,1-1.13,2.62,5.05,5.05,0,0,1-3.82,1.51,5.53,5.53,0,0,1,0-11,5.36,5.36,0,0,1,3.74,1.48L60,21.69a7.22,7.22,0,0,0-5.2-2.1,7.59,7.59,0,1,0,0,15.18,6.93,6.93,0,0,0,5.29-2.13,6.86,6.86,0,0,0,1.79-4.86,5.61,5.61,0,0,0-.12-1.29Zm12.72,6.36a3,3,0,1,1,2.76-3A2.83,2.83,0,0,1,67.52,32.87Zm0-7.86a4.89,4.89,0,1,0,4.9,4.89A4.81,4.81,0,0,0,67.52,25ZM78.2,32.87a2.82,2.82,0,0,1-2.75-3,2.76,2.76,0,1,1,5.5,0,2.8,2.8,0,0,1-2.75,3Zm0-7.86a4.89,4.89,0,1,0,4.9,4.89A4.81,4.81,0,0,0,78.2,25Z"/><path class="cls-3" d="M12.05,8.76a2.26,2.26,0,0,0-.62,1.7v25.1A2.28,2.28,0,0,0,12,37.17l.08.08h0a1.42,1.42,0,0,0,1,.37,2.58,2.58,0,0,0,1.29-.38L31,27.75l5.72-3.26A2.18,2.18,0,0,0,37.94,23h0a2.14,2.14,0,0,0-1.21-1.49L31,18.25,14.35,8.76a2.58,2.58,0,0,0-1.29-.38,1.47,1.47,0,0,0-1,.38Z"/><path class="cls-4" d="M12.05,37.25,12,37.17a2.28,2.28,0,0,1-.54-1.61V10.46a2.26,2.26,0,0,1,.62-1.7L26.27,23,12.05,37.25"/><path class="cls-5" d="M31,27.75,26.27,23,31,18.25l5.72,3.26A2.18,2.18,0,0,1,37.94,23h0a2.14,2.14,0,0,1-1.21,1.49L31,27.75"/><path class="cls-6" d="M13.08,37.62a1.48,1.48,0,0,1-1-.37h0L26.29,23,31,27.77,14.37,37.25a2.93,2.93,0,0,1-1.29.37"/><path class="cls-7" d="M26.27,23,12.05,8.75a1.42,1.42,0,0,1,1-.37,2.58,2.58,0,0,1,1.29.38L31,18.25,26.27,23"/><path class="cls-8" d="M12,37.34a2.3,2.3,0,0,1-.54-1.61v-.17A2.28,2.28,0,0,0,12,37.17l.08.08-.08.09"/><path class="cls-9" d="M31.13,27.85l-.11-.1,5.73-3.26A2.18,2.18,0,0,0,38,23a1.38,1.38,0,0,1-.14.59,2.53,2.53,0,0,1-1.07,1.06l-5.62,3.2"/><path class="cls-10" d="M37.94,23a2.14,2.14,0,0,0-1.21-1.49L31,18.25l.1-.1h0l5.62,3.19A2,2,0,0,1,37.94,23"/><path class="cls-11" d="M11.45,10.46v-.35h0A2.16,2.16,0,0,1,12,8.7l.08.08a2.15,2.15,0,0,0-.6,1.68"/></svg>