<svg width="157" height="56" viewBox="0 0 157 56" fill="none" xmlns="http://www.w3.org/2000/svg">
<path d="M1.24108 51.7495C0.465251 49.3673 0 46.3722 0 28.2436C0 10.8835 0.23324 8.19483 1.00784 5.96706C2.24892 2.74092 4.72985 0.820801 9.53827 0.820801C16.5944 0.820801 18.766 4.96869 18.766 14.1862V21.4824H11.5539V12.958C11.5539 8.80893 11.0114 7.34969 9.53827 7.34969C8.53043 7.34969 8.06518 7.81056 7.7546 8.73232C7.36546 9.73068 7.21201 11.7286 7.21201 28.2436C7.21201 44.8351 7.52136 47.1407 7.98661 48.2157C8.22476 48.9064 8.60777 49.219 9.30503 49.219C11.0114 49.219 11.8645 45.6852 11.8645 41.2308V33.7753H9.46093V27.6295H18.4554V55.2055H12.2524L14.1171 48.2157H12.9534C11.403 53.8229 9.46461 55.8196 6.5172 55.8196C4.42419 55.8196 2.32994 54.8212 1.24476 51.7495" fill="#515108"/>
<path d="M32.6534 55.2057L29.4739 32.3162H28.1555V55.2057H21.1768V1.43506H29.086C33.2733 1.43506 36.3754 3.04874 38.2364 6.19826C39.5548 8.50873 39.7868 10.576 39.7868 16.1843C39.7868 21.254 39.5548 23.635 38.2364 25.9394C37.0726 27.8595 35.1343 28.8578 33.0413 29.3187V30.2405L35.9875 31.1914C36.0327 31.206 36.0729 31.2326 36.1037 31.2685C36.1344 31.3044 36.1546 31.348 36.1618 31.3945L39.8605 55.2057H32.6534ZM28.1555 7.96516V24.2491H29.086C30.3271 24.2491 31.335 23.7882 31.9549 22.7132C32.5748 21.6382 32.7307 20.4088 32.7307 16.1843C32.7307 12.1131 32.576 10.576 32.0322 9.57762C31.335 8.42604 30.4045 7.96516 29.086 7.96516H28.1555Z" fill="#515108"/>
<path d="M42.7871 50.5967C42.0125 48.3689 41.7793 45.6803 41.7793 28.3202C41.7793 10.8835 42.0125 8.19483 42.7871 5.96706C44.0282 2.74092 46.5091 0.820801 51.1629 0.820801C55.9701 0.820801 58.3737 2.81753 59.6147 6.04975C60.3906 8.27752 60.5452 11.3504 60.5452 28.3263C60.5452 45.3021 60.3967 48.3677 59.6147 50.5201C58.3737 53.8229 55.9701 55.8196 51.1629 55.8196C46.5091 55.8196 44.0282 53.8995 42.7871 50.5967ZM52.868 47.8315C53.2559 46.9097 53.3332 45.1428 53.3332 28.3202C53.3332 11.4173 53.2559 9.73068 52.868 8.73232C52.5586 7.81056 52.0148 7.34969 51.1629 7.34969C50.3109 7.34969 49.8396 7.81056 49.5339 8.73232C49.146 9.73068 48.9913 11.6508 48.9913 28.3202C48.9913 44.9896 49.146 46.8331 49.5339 47.9081C49.8396 48.8298 50.3097 49.219 51.1629 49.219C52.016 49.219 52.5586 48.8347 52.868 47.8363" fill="#515108"/>
<path d="M63.5772 50.5967C62.8013 48.3689 62.5693 45.6803 62.5693 28.3202C62.5693 10.8835 62.8013 8.19483 63.5772 5.96706C64.8158 2.74092 67.2992 0.820801 71.9517 0.820801C76.7601 0.820801 79.1637 2.81753 80.406 6.04975C81.1806 8.27752 81.3353 11.3504 81.3353 28.3263C81.3353 45.3021 81.1794 48.3677 80.406 50.5201C79.165 53.8229 76.7614 55.8196 71.9529 55.8196C67.3004 55.8196 64.8195 53.8995 63.5784 50.5967H63.5772ZM73.6544 47.8315C74.0423 46.9097 74.1196 45.1428 74.1196 28.3202C74.1196 11.4173 74.0423 9.73068 73.6544 8.73232C73.3438 7.81056 72.8012 7.34969 71.948 7.34969C71.0949 7.34969 70.6296 7.81056 70.3203 8.73232C69.9323 9.73068 69.7764 11.6508 69.7764 28.3202C69.7764 44.9896 69.9323 46.8331 70.3203 47.9081C70.6296 48.8298 71.0949 49.2141 71.948 49.2141C72.8012 49.2141 73.3438 48.8298 73.6544 47.8315Z" fill="#515108"/>
<path d="M86.2903 55.2057L82.8789 1.43506H90.3229L92.1066 45.0664L92.1839 50.3671H93.3465L93.425 45.0664L95.2087 1.43506H102.653L99.2401 55.2057H86.2903Z" fill="#515108"/>
<path d="M104.884 55.2057V1.43506H119.85V7.96516H111.863V25.0176H119.308V31.5465H111.863V48.6768H119.85V55.2057H104.884Z" fill="#515108"/>
<path d="M131.015 45.9635C131.54 45.9635 131.961 46.0598 132.276 46.2524C132.609 46.4275 132.871 46.6815 133.064 47.0142C133.239 47.3294 133.344 47.6972 133.379 48.1175C133.432 48.5378 133.458 49.2558 133.458 50.2715C133.458 51.3398 133.432 52.0928 133.379 52.5306C133.327 52.9509 133.204 53.3362 133.011 53.6864C132.504 54.5621 131.654 54.9999 130.463 54.9999H127.206V36.6118H130.463C131.654 36.6118 132.504 37.0409 133.011 37.899C133.204 38.2492 133.327 38.6433 133.379 39.0811C133.432 39.5014 133.458 40.2456 133.458 41.3139C133.458 42.3647 133.432 43.0914 133.379 43.4942C133.344 43.8795 133.239 44.221 133.064 44.5187C132.871 44.8689 132.617 45.1316 132.302 45.3067C132.004 45.4644 131.575 45.5519 131.015 45.5694V45.9635ZM129.57 38.8447V44.7288H129.833C130.288 44.7288 130.612 44.5537 130.805 44.2035C130.892 44.0283 130.945 43.8007 130.962 43.5205C130.997 43.2403 131.015 42.6624 131.015 41.7867C131.015 40.8936 130.997 40.3157 130.962 40.053C130.945 39.7728 130.884 39.5451 130.779 39.37C130.568 39.0198 130.253 38.8447 129.833 38.8447H129.57ZM130.779 52.2154C130.884 52.0403 130.945 51.8214 130.962 51.5587C130.997 51.2785 131.015 50.6918 131.015 49.7987C131.015 48.9055 130.997 48.3189 130.962 48.0387C130.945 47.7585 130.884 47.5308 130.779 47.3557C130.691 47.1981 130.56 47.0755 130.385 46.9879C130.227 46.8829 130.043 46.8303 129.833 46.8303H129.57V52.767H129.833C130.236 52.767 130.551 52.5832 130.779 52.2154Z" fill="#515108"/>
<path d="M139.792 54.9999H134.722V36.6118H139.792V38.8447H137.087V44.6763H139.608V46.9091H137.087V52.767H139.792V54.9999Z" fill="#515108"/>
<path d="M140.376 36.6118H146.628V38.8447H144.684V54.9999H142.32V38.8447H140.376V36.6118Z" fill="#515108"/>
<path d="M153.481 54.9999H150.96L150.592 48.9318H149.095L148.753 54.9999H146.231L147.676 36.6118H152.063L153.481 54.9999ZM149.62 40.1581L149.226 46.699H150.461L150.067 40.1581L150.04 37.9778H149.646L149.62 40.1581Z" fill="#515108"/>
</svg>
