<svg width="132" height="203" viewBox="0 0 132 203" fill="none" xmlns="http://www.w3.org/2000/svg">
<path d="M8.23769 167.161C2.20358 150.336 0 127.991 0 101.521C0 75.0506 2.18985 52.6916 8.23769 35.8808C16.7294 12.1399 33.1498 0 62.4966 0C91.8433 0 108.271 12.1399 116.762 35.8601C122.796 52.6847 125 75.0298 125 101.5C125 127.97 122.81 150.322 116.762 167.14C108.271 190.867 91.8227 203 62.4966 203C33.1704 203 16.7294 190.867 8.26514 167.14L8.23769 167.161ZM75.4091 150.557C79.2465 139.799 79.7957 120.487 79.7957 101.459C79.7957 82.4299 79.2465 63.111 75.4091 52.353C72.9447 45.4435 68.8327 41.2979 62.524 41.2979C56.2153 41.2979 52.1102 45.4435 49.6458 52.353C45.8084 63.111 45.2592 82.423 45.2592 101.459C45.2592 120.494 45.8084 139.799 49.6458 150.557C52.1102 157.467 56.2222 161.612 62.524 161.612C68.8259 161.612 72.9447 157.467 75.4091 150.557Z" fill="white"/>
</svg>
