<svg width="43" height="42" viewBox="0 0 43 42" fill="none" xmlns="http://www.w3.org/2000/svg">
<g clip-path="url(#clip0)">
<path fill-rule="evenodd" clip-rule="evenodd" d="M42.5 21C42.5 32.598 33.098 42 21.5 42C9.90202 42 0.5 32.598 0.5 21C0.5 9.40202 9.90202 0 21.5 0C33.098 0 42.5 9.40202 42.5 21ZM21.4028 9.52783C18.314 9.52783 17.9264 9.54096 16.7128 9.59608C15.5018 9.65121 14.6749 9.84371 13.9513 10.1246C13.1924 10.4104 12.505 10.8583 11.937 11.4371C11.3581 12.0053 10.9102 12.693 10.6245 13.4522C10.3436 14.175 10.152 15.0018 10.096 16.2128C10.0409 17.4265 10.0278 17.8141 10.0278 20.9028C10.0278 23.9916 10.0409 24.3792 10.096 25.5928C10.1511 26.8038 10.3436 27.6307 10.6245 28.3535C10.9159 29.1016 11.3044 29.736 11.937 30.3686C12.505 30.9474 13.1924 31.3953 13.9513 31.6811C14.6749 31.9611 15.5018 32.1536 16.7128 32.2096C17.9264 32.2647 18.314 32.2778 21.4028 32.2778C24.4915 32.2778 24.8791 32.2647 26.0928 32.2096C27.3038 32.1545 28.1306 31.962 28.8534 31.6811C29.6126 31.3954 30.3003 30.9475 30.8685 30.3686C31.4474 29.8003 31.8953 29.1126 32.181 28.3535C32.461 27.6307 32.6535 26.8038 32.7095 25.5928C32.7646 24.3792 32.7778 23.9916 32.7778 20.9028C32.7778 17.8141 32.7646 17.4265 32.7095 16.2128C32.6544 15.0018 32.4619 14.175 32.1801 13.4522C31.8947 12.6931 31.4471 12.0054 30.8685 11.4371C30.3003 10.8582 29.6126 10.4103 28.8534 10.1246C28.1306 9.84458 27.3038 9.65208 26.0928 9.59608C24.8791 9.54096 24.4915 9.52783 21.4028 9.52783ZM21.4028 11.5771C24.4399 11.5771 24.7995 11.5893 25.9991 11.6436C27.1078 11.6943 27.7106 11.8798 28.1114 12.0356C28.6425 12.2421 29.0214 12.488 29.4195 12.8861C29.8176 13.2842 30.0635 13.6631 30.27 14.1942C30.4258 14.595 30.6113 15.197 30.662 16.3065C30.7163 17.5052 30.7285 17.8657 30.7285 20.9028C30.7285 23.94 30.7163 24.2996 30.662 25.4992C30.6113 26.6087 30.4258 27.2107 30.27 27.6115C30.0878 28.1056 29.7972 28.5526 29.4195 28.9196C29.0525 29.2973 28.6055 29.5879 28.1114 29.7701C27.7106 29.9258 27.1078 30.1113 25.9991 30.1621C24.8004 30.2163 24.4399 30.2286 21.4028 30.2286C18.3656 30.2286 18.0051 30.2163 16.8064 30.1621C15.6969 30.1113 15.0949 29.9258 14.6941 29.7701C14.2 29.5879 13.753 29.2973 13.386 28.9196C13.0084 28.5525 12.7178 28.1055 12.5355 27.6115C12.3798 27.2107 12.1943 26.6087 12.1435 25.4992C12.0893 24.3005 12.077 23.94 12.077 20.9028C12.077 17.8657 12.0893 17.5061 12.1435 16.3065C12.1943 15.197 12.3798 14.595 12.5355 14.1942C12.742 13.6631 12.9879 13.2842 13.386 12.8861C13.753 12.5084 14.2 12.2178 14.6941 12.0356C15.0949 11.8798 15.6969 11.6943 16.8064 11.6436C18.0051 11.5893 18.3656 11.5771 21.4028 11.5771ZM17.0717 16.5718C18.2204 15.4231 19.7783 14.7778 21.4028 14.7778C23.0272 14.7778 24.5851 15.4231 25.7338 16.5718C26.8825 17.7205 27.5278 19.2784 27.5278 20.9028C27.5278 22.5273 26.8825 24.0852 25.7338 25.2339C24.5851 26.3825 23.0272 27.0278 21.4028 27.0278C19.7783 27.0278 18.2204 26.3825 17.0717 25.2339C15.9231 24.0852 15.2778 22.5273 15.2778 20.9028C15.2778 19.2784 15.9231 17.7205 17.0717 16.5718ZM18.6185 23.6871C19.357 24.4255 20.3585 24.8403 21.4028 24.8403C22.4471 24.8403 23.4486 24.4255 24.187 23.6871C24.9254 22.9486 25.3403 21.9471 25.3403 20.9028C25.3403 19.8585 24.9254 18.857 24.187 18.1186C23.4486 17.3802 22.4471 16.9653 21.4028 16.9653C20.3585 16.9653 19.357 17.3802 18.6185 18.1186C17.8801 18.857 17.4653 19.8585 17.4653 20.9028C17.4653 21.9471 17.8801 22.9486 18.6185 23.6871ZM28.9087 15.4011C28.9791 15.2312 29.0153 15.0492 29.0153 14.8653C29.0153 14.494 28.8678 14.1379 28.6052 13.8754C28.3427 13.6128 27.9866 13.4653 27.6153 13.4653C27.244 13.4653 26.8879 13.6128 26.6253 13.8754C26.3628 14.1379 26.2153 14.494 26.2153 14.8653C26.2153 15.0492 26.2515 15.2312 26.3218 15.4011C26.3922 15.5709 26.4953 15.7253 26.6253 15.8553C26.7553 15.9853 26.9097 16.0884 27.0795 16.1588C27.2494 16.2291 27.4314 16.2653 27.6153 16.2653C27.7991 16.2653 27.9812 16.2291 28.151 16.1588C28.3209 16.0884 28.4752 15.9853 28.6052 15.8553C28.7352 15.7253 28.8383 15.5709 28.9087 15.4011Z" fill="#515108"/>
</g>
<defs>
<clipPath id="clip0">
<rect width="42" height="42" fill="white" transform="translate(0.5)"/>
</clipPath>
</defs>
</svg>
