<svg width="43" height="42" viewBox="0 0 43 42" fill="none" xmlns="http://www.w3.org/2000/svg">
<g clip-path="url(#clip0)">
<path d="M21.5 0C9.90188 0 0.5 9.40188 0.5 21C0.5 32.5981 9.90188 42 21.5 42C33.0981 42 42.5 32.5981 42.5 21C42.5 9.40188 33.0981 0 21.5 0ZM16.3594 29.7041H12.1069V16.0191H16.3594V29.7041ZM14.2069 14.3391C12.8637 14.3391 11.9953 13.3875 11.9953 12.2106C11.9953 11.0097 12.89 10.0866 14.2616 10.0866C15.6331 10.0866 16.4731 11.0097 16.4994 12.2106C16.4994 13.3875 15.6331 14.3391 14.2069 14.3391ZM31.8906 29.7041H27.6381V22.12C27.6381 20.3547 27.0213 19.1559 25.4834 19.1559C24.3088 19.1559 23.6109 19.9675 23.3025 20.7484C23.1888 21.0263 23.1603 21.42 23.1603 21.8116V29.7019H18.9056V20.3831C18.9056 18.6747 18.8509 17.2463 18.7941 16.0169H22.4888L22.6834 17.9178H22.7688C23.3288 17.0253 24.7003 15.7084 26.995 15.7084C29.7928 15.7084 31.8906 17.5831 31.8906 21.6125V29.7041Z" fill="#515108"/>
</g>
<defs>
<clipPath id="clip0">
<rect width="42" height="42" fill="white" transform="translate(0.5)"/>
</clipPath>
</defs>
</svg>
