<?xml version="1.0" encoding="UTF-8"?>
<svg width="43px" height="43px" viewBox="0 0 43 43" version="1.1" xmlns="http://www.w3.org/2000/svg" xmlns:xlink="http://www.w3.org/1999/xlink">
    <title>med</title>
    <g id="Page-1" stroke="none" stroke-width="1" fill="none" fill-rule="evenodd">
        <g id="Home" transform="translate(-811.000000, -5300.000000)" fill="#515108">
            <g id="Group" transform="translate(586.500000, 5300.620444)">
                <path d="M246,0 C257.59798,0 267,9.40202025 267,21 C267,32.5979797 257.59798,42 246,42 C234.40202,42 225,32.5979797 225,21 C225,9.40202025 234.40202,0 246,0 Z M243.42225,12.3088676 L235.185545,12.3088676 L235.185545,14.8704645 L236.029,14.8704645 C236.376358,14.8704645 236.832286,15.3355407 236.832286,15.6332898 L236.832286,15.6332898 L236.832286,26.4250963 C236.832286,26.7232113 236.376358,27.1295355 236.029,27.1295355 L236.029,27.1295355 L235.185545,27.1295355 L235.185545,29.6911324 L241.772508,29.6911324 L241.772508,27.1295355 L240.125767,27.1295355 L240.125767,15.7853206 L240.221827,15.7853206 L244.017693,29.6911324 L246.994909,29.6911324 L250.840378,15.7853206 L250.921069,15.7853206 L250.921069,27.1295355 L249.274328,27.1295355 L249.274328,29.6911324 L257.14209,29.6911324 L257.14209,27.1295355 L256.273708,27.1295355 C255.951313,27.1295355 255.495349,26.7232113 255.495349,26.4250963 L255.495349,26.4250963 L255.495349,15.6332898 C255.495349,15.3355407 255.951313,14.8704645 256.273708,14.8704645 L256.273708,14.8704645 L257.14209,14.8704645 L257.14209,12.3088676 L248.930177,12.3088676 L246.200906,22.3722841 L246.12651,22.3722841 L243.42225,12.3088676 Z" id="med"></path>
            </g>
        </g>
    </g>
</svg>