<svg width="24" height="28" viewBox="0 0 24 28" fill="none" xmlns="http://www.w3.org/2000/svg">
<path fill-rule="evenodd" clip-rule="evenodd" d="M20 0H4C2.93913 0 1.92172 0.421427 1.17157 1.17157C0.421427 1.92172 0 2.93913 0 4V24C0 25.0609 0.421427 26.0783 1.17157 26.8284C1.92172 27.5786 2.93913 28 4 28H20C21.0609 28 22.0783 27.5786 22.8284 26.8284C23.5786 26.0783 24 25.0609 24 24V4C24 2.93913 23.5786 1.92172 22.8284 1.17157C22.0783 0.421427 21.0609 0 20 0ZM13.45 5.586C13.0324 5.70545 12.665 5.95762 12.4034 6.30437C12.1418 6.65113 12.0002 7.07363 12 7.508V18.4C11.3676 18.1318 10.687 17.9956 10 18C7.79 18 6 19.344 6 21C6 22.656 7.79 24 10 24C12.21 24 14 22.656 14 21V11.428L19 10V6.652C19.0002 6.3423 18.9284 6.03678 18.7904 5.75954C18.6524 5.48229 18.4518 5.24089 18.2046 5.05435C17.9574 4.86782 17.6702 4.74124 17.3657 4.68461C17.0612 4.62798 16.7478 4.64283 16.45 4.728L13.45 5.586Z" fill="#515108"/>
</svg>
