<svg width="43" height="42" viewBox="0 0 43 42" fill="none" xmlns="http://www.w3.org/2000/svg">
<g clip-path="url(#clip0)">
<path d="M21.5 0C9.90313 0 0.5 9.40313 0.5 21C0.5 32.5969 9.90313 42 21.5 42C33.0969 42 42.5 32.5969 42.5 21C42.5 9.40313 33.0969 0 21.5 0ZM31.5922 15.8297C31.6062 16.05 31.6062 16.2797 31.6062 16.5047C31.6062 23.3859 26.3656 31.3125 16.7891 31.3125C13.8359 31.3125 11.0984 30.4547 8.79219 28.9781C9.21406 29.025 9.61719 29.0437 10.0484 29.0437C12.4859 29.0437 14.7266 28.2188 16.5125 26.8219C14.225 26.775 12.3031 25.275 11.6469 23.2125C12.4484 23.3297 13.1703 23.3297 13.9953 23.1188C12.8175 22.8795 11.7588 22.2398 10.9991 21.3084C10.2395 20.377 9.82572 19.2113 9.82812 18.0094V17.9437C10.5172 18.3328 11.3281 18.5719 12.1766 18.6047C11.4633 18.1293 10.8784 17.4854 10.4736 16.7298C10.0689 15.9743 9.85683 15.1306 9.85625 14.2734C9.85625 13.3031 10.1094 12.4172 10.5641 11.6484C11.8714 13.2578 13.5028 14.5741 15.3522 15.5117C17.2016 16.4493 19.2275 16.9873 21.2984 17.0906C20.5625 13.5516 23.2063 10.6875 26.3844 10.6875C27.8844 10.6875 29.2344 11.3156 30.1859 12.3281C31.3625 12.1078 32.4875 11.6672 33.4906 11.0766C33.1016 12.2812 32.2859 13.2984 31.2031 13.9406C32.2531 13.8281 33.2656 13.5375 34.2031 13.1297C33.4953 14.1703 32.6094 15.0938 31.5922 15.8297Z" fill="#515108"/>
</g>
<defs>
<clipPath id="clip0">
<rect width="42" height="42" fill="white" transform="translate(0.5)"/>
</clipPath>
</defs>
</svg>
